M48
; DRILL file {KiCad (6.0.11)} date Sun Jun  9 14:40:52 2024
; FORMAT={-:-/ absolute / inch / decimal}
; #@! TF.CreationDate,2024-06-09T14:40:52-05:00
; #@! TF.GenerationSoftware,Kicad,Pcbnew,(6.0.11)
; #@! TF.FileFunction,Plated,1,2,PTH
FMAT,2
INCH
; #@! TA.AperFunction,Plated,PTH,ViaDrill
T1C0.0157
; #@! TA.AperFunction,Plated,PTH,ComponentDrill
T2C0.0315
; #@! TA.AperFunction,Plated,PTH,ComponentDrill
T3C0.0354
; #@! TA.AperFunction,Plated,PTH,ComponentDrill
T4C0.0394
; #@! TA.AperFunction,Plated,PTH,ComponentDrill
T5C0.0402
; #@! TA.AperFunction,Plated,PTH,ComponentDrill
T6C0.0433
%
G90
G05
T1
X2.6496Y-4.1614
X2.6496Y-4.2706
X2.7126Y-4.1299
X2.9488Y-3.0551
X2.9594Y-3.4972
X2.9988Y-3.5563
X3.035Y-3.6728
X3.0827Y-3.0512
X3.1102Y-3.4528
X3.1142Y-3.5551
X3.1142Y-3.6693
X3.8583Y-1.7323
X3.8583Y-2.2441
X3.8583Y-2.7559
X3.8583Y-3.2677
X4.3307Y-1.7323
X4.3307Y-2.2441
X4.3307Y-2.7559
X4.3307Y-3.2677
X4.8031Y-1.7323
X4.8031Y-2.2441
X4.8031Y-2.7559
X4.8031Y-3.2677
X5.2756Y-1.7323
X5.2756Y-2.2441
X5.2756Y-2.7559
X5.2756Y-3.2677
T2
X1.6882Y-4.1315
X1.6882Y-4.2315
X1.6882Y-4.3315
X1.689Y-3.711
X1.689Y-4.011
X1.8189Y-3.7094
X1.8189Y-4.0094
X1.8823Y-4.1299
X1.8823Y-4.2299
X1.8823Y-4.3299
X1.9469Y-3.7102
X1.9469Y-4.0102
X2.0758Y-4.13
X2.0758Y-4.23
X2.0758Y-4.33
X2.08Y-3.71
X2.08Y-4.01
X2.13Y-4.92
X2.13Y-5.0184
X2.21Y-3.71
X2.21Y-4.01
X2.21Y-4.51
X2.2516Y-4.8
X2.34Y-3.71
X2.34Y-4.01
X2.4484Y-4.8
X2.4748Y-3.9154
X2.4748Y-4.1122
X2.51Y-4.51
X2.5945Y-3.6811
X2.5998Y-4.0696
X2.5998Y-4.3696
X2.6457Y-3.815
X2.6457Y-3.9449
X2.68Y-4.71
X2.68Y-4.8084
X2.6998Y-4.0696
X2.6998Y-4.3696
X2.7998Y-4.0696
X2.7998Y-4.3696
X2.8031Y-2.1252
X2.8031Y-2.4252
X2.8091Y-2.6807
X2.8091Y-2.9807
X2.84Y-1.57
X2.84Y-1.87
X2.8425Y-3.815
X2.8945Y-3.6811
X2.8976Y-2.0098
X2.8998Y-4.0696
X2.8998Y-4.3696
X2.9169Y-4.7677
X2.9169Y-4.8937
X2.9213Y-4.5079
X2.9213Y-4.6378
X2.9457Y-3.9449
X2.9961Y-2.0098
X2.9998Y-4.0696
X2.9998Y-4.3696
X3.0998Y-4.0696
X3.0998Y-4.3696
X3.1181Y-4.6378
X3.1998Y-4.0696
X3.1998Y-4.3696
X3.2008Y-1.8092
X3.2008Y-1.9092
X3.2008Y-2.0092
X3.2008Y-2.1092
X3.2008Y-2.2092
X3.2008Y-2.3092
X3.2008Y-2.4092
X3.2008Y-2.5092
X3.2039Y-2.9055
X3.2039Y-3.0055
X3.2039Y-3.1055
X3.2039Y-3.2055
X3.2039Y-3.3055
X3.2039Y-3.4055
X3.2039Y-3.5055
X3.2039Y-3.6055
X3.2169Y-4.7677
X3.2169Y-4.8937
X3.2213Y-4.5079
X3.2913Y-2.7441
X3.311Y-1.6142
X3.4882Y-2.7441
X3.5008Y-1.8092
X3.5008Y-1.9092
X3.5008Y-2.0092
X3.5008Y-2.1092
X3.5008Y-2.2092
X3.5008Y-2.3092
X3.5008Y-2.4092
X3.5008Y-2.5092
X3.5039Y-2.9055
X3.5039Y-3.0055
X3.5039Y-3.1055
X3.5039Y-3.2055
X3.5039Y-3.3055
X3.5039Y-3.4055
X3.5039Y-3.5055
X3.5039Y-3.6055
X3.5079Y-1.6142
T3
X2.27Y-4.3
X2.37Y-4.3
T5
X1.8197Y-1.6142
X1.8197Y-1.7142
X1.8197Y-1.8142
X1.8197Y-1.9142
X1.8197Y-2.0142
X1.8197Y-2.1142
X1.8197Y-2.2142
X1.8197Y-2.3142
X1.8197Y-2.4142
X1.8197Y-2.5142
X1.8197Y-2.6142
X1.8197Y-2.7142
X1.8197Y-2.8142
X1.8197Y-2.9142
X1.8197Y-3.0142
X1.8197Y-3.1142
X1.8197Y-3.2142
X1.8197Y-3.3142
X1.8197Y-3.4142
X1.8197Y-3.5142
X2.0697Y-3.5051
X2.1697Y-3.5051
X2.2697Y-3.5051
X2.5197Y-1.6142
X2.5197Y-1.7142
X2.5197Y-1.8142
X2.5197Y-1.9142
X2.5197Y-2.0142
X2.5197Y-2.1142
X2.5197Y-2.2142
X2.5197Y-2.3142
X2.5197Y-2.4142
X2.5197Y-2.5142
X2.5197Y-2.6142
X2.5197Y-2.7142
X2.5197Y-2.8142
X2.5197Y-2.9142
X2.5197Y-3.0142
X2.5197Y-3.1142
X2.5197Y-3.2142
X2.5197Y-3.3142
X2.5197Y-3.4142
X2.5197Y-3.5142
T6
X2.22Y-4.65
X2.42Y-4.9428
X2.52Y-4.65
X2.52Y-4.9428
X2.62Y-4.9428
T4
G00X1.8238Y-4.5787
M15
G01X1.8238Y-4.6575
M16
G05
G00X1.9025Y-4.8031
M15
G01X1.9813Y-4.8031
M16
G05
G00X2.06Y-4.5787
M15
G01X2.06Y-4.6575
M16
G05
T0
M30
