%TF.GenerationSoftware,KiCad,Pcbnew,(6.0.11)*%
%TF.CreationDate,2024-06-09T14:40:51-05:00*%
%TF.ProjectId,CapactiveTouchpad,43617061-6374-4697-9665-546f75636870,rev?*%
%TF.SameCoordinates,Original*%
%TF.FileFunction,Copper,L2,Bot*%
%TF.FilePolarity,Positive*%
%FSLAX46Y46*%
G04 Gerber Fmt 4.6, Leading zero omitted, Abs format (unit mm)*
G04 Created by KiCad (PCBNEW (6.0.11)) date 2024-06-09 14:40:51*
%MOMM*%
%LPD*%
G01*
G04 APERTURE LIST*
G04 Aperture macros list*
%AMRoundRect*
0 Rectangle with rounded corners*
0 $1 Rounding radius*
0 $2 $3 $4 $5 $6 $7 $8 $9 X,Y pos of 4 corners*
0 Add a 4 corners polygon primitive as box body*
4,1,4,$2,$3,$4,$5,$6,$7,$8,$9,$2,$3,0*
0 Add four circle primitives for the rounded corners*
1,1,$1+$1,$2,$3*
1,1,$1+$1,$4,$5*
1,1,$1+$1,$6,$7*
1,1,$1+$1,$8,$9*
0 Add four rect primitives between the rounded corners*
20,1,$1+$1,$2,$3,$4,$5,0*
20,1,$1+$1,$4,$5,$6,$7,0*
20,1,$1+$1,$6,$7,$8,$9,0*
20,1,$1+$1,$8,$9,$2,$3,0*%
G04 Aperture macros list end*
%TA.AperFunction,ComponentPad*%
%ADD10C,1.600000*%
%TD*%
%TA.AperFunction,ComponentPad*%
%ADD11O,1.600000X1.600000*%
%TD*%
%TA.AperFunction,ComponentPad*%
%ADD12R,1.500000X1.500000*%
%TD*%
%TA.AperFunction,ComponentPad*%
%ADD13C,1.500000*%
%TD*%
%TA.AperFunction,ComponentPad*%
%ADD14R,3.500000X3.500000*%
%TD*%
%TA.AperFunction,ComponentPad*%
%ADD15RoundRect,0.750000X-0.750000X-1.000000X0.750000X-1.000000X0.750000X1.000000X-0.750000X1.000000X0*%
%TD*%
%TA.AperFunction,ComponentPad*%
%ADD16RoundRect,0.875000X-0.875000X-0.875000X0.875000X-0.875000X0.875000X0.875000X-0.875000X0.875000X0*%
%TD*%
%TA.AperFunction,ComponentPad*%
%ADD17R,1.905000X2.000000*%
%TD*%
%TA.AperFunction,ComponentPad*%
%ADD18O,1.905000X2.000000*%
%TD*%
%TA.AperFunction,ComponentPad*%
%ADD19R,2.200000X2.200000*%
%TD*%
%TA.AperFunction,ComponentPad*%
%ADD20O,2.200000X2.200000*%
%TD*%
%TA.AperFunction,ComponentPad*%
%ADD21O,1.700000X1.700000*%
%TD*%
%TA.AperFunction,ComponentPad*%
%ADD22R,1.700000X1.700000*%
%TD*%
%TA.AperFunction,ComponentPad*%
%ADD23R,1.600000X1.600000*%
%TD*%
%TA.AperFunction,ComponentPad*%
%ADD24R,1.800000X1.800000*%
%TD*%
%TA.AperFunction,ComponentPad*%
%ADD25C,1.800000*%
%TD*%
%TA.AperFunction,ViaPad*%
%ADD26C,0.800000*%
%TD*%
%TA.AperFunction,Conductor*%
%ADD27C,0.350000*%
%TD*%
%TA.AperFunction,Conductor*%
%ADD28C,0.250000*%
%TD*%
G04 APERTURE END LIST*
D10*
%TO.P,R15,1*%
%TO.N,Net-(C8-Pad1)*%
X74200000Y-114500000D03*
D11*
%TO.P,R15,2*%
%TO.N,Net-(R13-Pad2)*%
X81820000Y-114500000D03*
%TD*%
D12*
%TO.P,Q1,1,E*%
%TO.N,GND*%
X52726000Y-104902000D03*
D13*
%TO.P,Q1,2,B*%
%TO.N,Net-(Q1-Pad2)*%
X52726000Y-107442000D03*
%TO.P,Q1,3,C*%
%TO.N,SEL0*%
X52726000Y-109982000D03*
%TD*%
D12*
%TO.P,Q2,1,E*%
%TO.N,GND*%
X47810000Y-104900000D03*
D13*
%TO.P,Q2,2,B*%
%TO.N,Net-(Q2-Pad2)*%
X47810000Y-107440000D03*
%TO.P,Q2,3,C*%
%TO.N,SEL1*%
X47810000Y-109980000D03*
%TD*%
D10*
%TO.P,C9,1*%
%TO.N,Net-(C9-Pad1)*%
X67200000Y-96900000D03*
%TO.P,C9,2*%
%TO.N,GND*%
X72200000Y-96900000D03*
%TD*%
D14*
%TO.P,J1,1*%
%TO.N,Net-(C1-Pad1)*%
X52324000Y-117300000D03*
D15*
%TO.P,J1,2*%
%TO.N,unconnected-(J1-Pad2)*%
X46324000Y-117300000D03*
D16*
%TO.P,J1,3*%
%TO.N,unconnected-(J1-Pad3)*%
X49324000Y-122000000D03*
%TD*%
D10*
%TO.P,R11,1*%
%TO.N,Net-(C9-Pad1)*%
X67200000Y-100200000D03*
D11*
%TO.P,R11,2*%
%TO.N,Net-(R11-Pad2)*%
X74820000Y-100200000D03*
%TD*%
D10*
%TO.P,R6,1*%
%TO.N,Net-(R6-Pad1)*%
X46200000Y-94220000D03*
D11*
%TO.P,R6,2*%
%TO.N,Net-(Q2-Pad2)*%
X46200000Y-101840000D03*
%TD*%
D10*
%TO.P,R4,1*%
%TO.N,Net-(R4-Pad1)*%
X49450000Y-94240000D03*
D11*
%TO.P,R4,2*%
%TO.N,Net-(Q1-Pad2)*%
X49450000Y-101860000D03*
%TD*%
D17*
%TO.P,U1,1,VI*%
%TO.N,Net-(C1-Pad1)*%
X66548000Y-125547000D03*
D18*
%TO.P,U1,2,GND*%
%TO.N,GND*%
X64008000Y-125547000D03*
%TO.P,U1,3,VO*%
%TO.N,Net-(C6-Pad1)*%
X61468000Y-125547000D03*
%TD*%
D19*
%TO.P,D2,1,K*%
%TO.N,+5V*%
X64008000Y-118110000D03*
D20*
%TO.P,D2,2,A*%
%TO.N,Net-(C6-Pad1)*%
X56388000Y-118110000D03*
%TD*%
D10*
%TO.P,C8,1*%
%TO.N,Net-(C8-Pad1)*%
X74200000Y-117800000D03*
%TO.P,C8,2*%
%TO.N,GND*%
X79200000Y-117800000D03*
%TD*%
D21*
%TO.P,U4,1,GPIO0*%
%TO.N,unconnected-(U4-Pad1)*%
X46220000Y-41000000D03*
%TO.P,U4,2,GPIO1*%
%TO.N,unconnected-(U4-Pad2)*%
X46220000Y-43540000D03*
D22*
%TO.P,U4,3,GND*%
%TO.N,GND*%
X46220000Y-46080000D03*
D21*
%TO.P,U4,4,GPIO2*%
%TO.N,unconnected-(U4-Pad4)*%
X46220000Y-48620000D03*
%TO.P,U4,5,GPIO3*%
%TO.N,unconnected-(U4-Pad5)*%
X46220000Y-51160000D03*
%TO.P,U4,6,GPIO4*%
%TO.N,unconnected-(U4-Pad6)*%
X46220000Y-53700000D03*
%TO.P,U4,7,GPIO5*%
%TO.N,unconnected-(U4-Pad7)*%
X46220000Y-56240000D03*
D22*
%TO.P,U4,8,GND*%
%TO.N,GND*%
X46220000Y-58780000D03*
D21*
%TO.P,U4,9,GPIO6*%
%TO.N,unconnected-(U4-Pad9)*%
X46220000Y-61320000D03*
%TO.P,U4,10,GPIO7*%
%TO.N,unconnected-(U4-Pad10)*%
X46220000Y-63860000D03*
%TO.P,U4,11,GPIO8*%
%TO.N,unconnected-(U4-Pad11)*%
X46220000Y-66400000D03*
%TO.P,U4,12,GPIO9*%
%TO.N,unconnected-(U4-Pad12)*%
X46220000Y-68940000D03*
D22*
%TO.P,U4,13,GND*%
%TO.N,GND*%
X46220000Y-71480000D03*
D21*
%TO.P,U4,14,GPIO10*%
%TO.N,unconnected-(U4-Pad14)*%
X46220000Y-74020000D03*
%TO.P,U4,15,GPIO11*%
%TO.N,unconnected-(U4-Pad15)*%
X46220000Y-76560000D03*
%TO.P,U4,16,GPIO12*%
%TO.N,unconnected-(U4-Pad16)*%
X46220000Y-79100000D03*
%TO.P,U4,17,GPIO13*%
%TO.N,unconnected-(U4-Pad17)*%
X46220000Y-81640000D03*
D22*
%TO.P,U4,18,GND*%
%TO.N,GND*%
X46220000Y-84180000D03*
D21*
%TO.P,U4,19,GPIO14*%
%TO.N,unconnected-(U4-Pad19)*%
X46220000Y-86720000D03*
%TO.P,U4,20,GPIO15*%
%TO.N,unconnected-(U4-Pad20)*%
X46220000Y-89260000D03*
%TO.P,U4,21,GPIO16*%
%TO.N,Net-(R4-Pad1)*%
X64000000Y-89260000D03*
%TO.P,U4,22,GPIO17*%
%TO.N,Net-(R6-Pad1)*%
X64000000Y-86720000D03*
D22*
%TO.P,U4,23,GND*%
%TO.N,GND*%
X64000000Y-84180000D03*
D21*
%TO.P,U4,24,GPIO18*%
%TO.N,Net-(R8-Pad1)*%
X64000000Y-81640000D03*
%TO.P,U4,25,GPIO19*%
%TO.N,unconnected-(U4-Pad25)*%
X64000000Y-79100000D03*
%TO.P,U4,26,GPIO20*%
%TO.N,PADOSC1*%
X64000000Y-76560000D03*
%TO.P,U4,27,GPIO21*%
%TO.N,PADOSC2*%
X64000000Y-74020000D03*
D22*
%TO.P,U4,28,GND*%
%TO.N,GND*%
X64000000Y-71480000D03*
D21*
%TO.P,U4,29,GPIO22*%
%TO.N,PADOSC1*%
X64000000Y-68940000D03*
%TO.P,U4,30,RUN*%
%TO.N,Net-(R2-Pad1)*%
X64000000Y-66400000D03*
%TO.P,U4,31,GPIO26_ADC0*%
%TO.N,unconnected-(U4-Pad31)*%
X64000000Y-63860000D03*
%TO.P,U4,32,GPIO27_ADC1*%
%TO.N,unconnected-(U4-Pad32)*%
X64000000Y-61320000D03*
D22*
%TO.P,U4,33,AGND*%
%TO.N,GND*%
X64000000Y-58780000D03*
D21*
%TO.P,U4,34,GPIO28_ADC2*%
%TO.N,unconnected-(U4-Pad34)*%
X64000000Y-56240000D03*
%TO.P,U4,35,ADC_VREF*%
%TO.N,Net-(C5-Pad1)*%
X64000000Y-53700000D03*
%TO.P,U4,36,3V3*%
%TO.N,+3V3*%
X64000000Y-51160000D03*
%TO.P,U4,37,3V3_EN*%
%TO.N,Net-(R3-Pad1)*%
X64000000Y-48620000D03*
D22*
%TO.P,U4,38,GND*%
%TO.N,GND*%
X64000000Y-46080000D03*
D21*
%TO.P,U4,39,VSYS*%
%TO.N,Net-(R3-Pad2)*%
X64000000Y-43540000D03*
%TO.P,U4,40,VBUS*%
%TO.N,+5V*%
X64000000Y-41000000D03*
%TO.P,U4,41,SWCLK*%
%TO.N,unconnected-(U4-Pad41)*%
X52570000Y-89030000D03*
D22*
%TO.P,U4,42,GND*%
%TO.N,unconnected-(U4-Pad42)*%
X55110000Y-89030000D03*
D21*
%TO.P,U4,43,SWDIO*%
%TO.N,unconnected-(U4-Pad43)*%
X57650000Y-89030000D03*
%TD*%
D10*
%TO.P,C4,1*%
%TO.N,+5V*%
X88600000Y-69700000D03*
%TO.P,C4,2*%
%TO.N,GND*%
X83600000Y-69700000D03*
%TD*%
%TO.P,R8,1*%
%TO.N,Net-(R8-Pad1)*%
X42900000Y-94260000D03*
D11*
%TO.P,R8,2*%
%TO.N,Net-(Q3-Pad2)*%
X42900000Y-101880000D03*
%TD*%
D23*
%TO.P,U2,1*%
%TO.N,GND*%
X66035000Y-110988000D03*
D11*
%TO.P,U2,2*%
%TO.N,unconnected-(U2-Pad2)*%
X68575000Y-110988000D03*
%TO.P,U2,3*%
%TO.N,GND*%
X71115000Y-110988000D03*
%TO.P,U2,4*%
%TO.N,unconnected-(U2-Pad4)*%
X73655000Y-110988000D03*
%TO.P,U2,5*%
%TO.N,Net-(C8-Pad1)*%
X76195000Y-110988000D03*
%TO.P,U2,6*%
%TO.N,Net-(R13-Pad2)*%
X78735000Y-110988000D03*
%TO.P,U2,7,GND*%
%TO.N,GND*%
X81275000Y-110988000D03*
%TO.P,U2,8*%
%TO.N,unconnected-(U2-Pad8)*%
X81275000Y-103368000D03*
%TO.P,U2,9*%
%TO.N,GND*%
X78735000Y-103368000D03*
%TO.P,U2,10*%
%TO.N,unconnected-(U2-Pad10)*%
X76195000Y-103368000D03*
%TO.P,U2,11*%
%TO.N,GND*%
X73655000Y-103368000D03*
%TO.P,U2,12*%
%TO.N,Net-(R11-Pad2)*%
X71115000Y-103368000D03*
%TO.P,U2,13*%
%TO.N,Net-(C9-Pad1)*%
X68575000Y-103368000D03*
%TO.P,U2,14,VCC*%
%TO.N,+5V*%
X66035000Y-103368000D03*
%TD*%
D23*
%TO.P,U3,1,X4*%
%TO.N,Net-(U3-Pad1)*%
X81300000Y-45954000D03*
D11*
%TO.P,U3,2,X6*%
%TO.N,Net-(U3-Pad2)*%
X81300000Y-48494000D03*
%TO.P,U3,3,X*%
%TO.N,Net-(C9-Pad1)*%
X81300000Y-51034000D03*
%TO.P,U3,4,X7*%
%TO.N,Net-(U3-Pad4)*%
X81300000Y-53574000D03*
%TO.P,U3,5,X5*%
%TO.N,Net-(U3-Pad5)*%
X81300000Y-56114000D03*
%TO.P,U3,6,INH*%
%TO.N,GND*%
X81300000Y-58654000D03*
%TO.P,U3,7,VEE*%
X81300000Y-61194000D03*
%TO.P,U3,8,VSS*%
X81300000Y-63734000D03*
%TO.P,U3,9,C*%
%TO.N,SEL2*%
X88920000Y-63734000D03*
%TO.P,U3,10,B*%
%TO.N,SEL1*%
X88920000Y-61194000D03*
%TO.P,U3,11,A*%
%TO.N,SEL0*%
X88920000Y-58654000D03*
%TO.P,U3,12,X3*%
%TO.N,Net-(U3-Pad12)*%
X88920000Y-56114000D03*
%TO.P,U3,13,X0*%
%TO.N,Net-(U3-Pad13)*%
X88920000Y-53574000D03*
%TO.P,U3,14,X1*%
%TO.N,Net-(U3-Pad14)*%
X88920000Y-51034000D03*
%TO.P,U3,15,X2*%
%TO.N,Net-(U3-Pad15)*%
X88920000Y-48494000D03*
%TO.P,U3,16,VDD*%
%TO.N,+5V*%
X88920000Y-45954000D03*
%TD*%
D10*
%TO.P,R5,1*%
%TO.N,SEL0*%
X52832000Y-101854000D03*
D11*
%TO.P,R5,2*%
%TO.N,+5V*%
X52832000Y-94234000D03*
%TD*%
D10*
%TO.P,C7,1*%
%TO.N,+5V*%
X62860000Y-99450000D03*
%TO.P,C7,2*%
%TO.N,GND*%
X62860000Y-104450000D03*
%TD*%
%TO.P,R12,1*%
%TO.N,PADOSC1*%
X71350000Y-68090000D03*
D11*
%TO.P,R12,2*%
%TO.N,GND*%
X71350000Y-75710000D03*
%TD*%
D10*
%TO.P,R2,1*%
%TO.N,Net-(R2-Pad1)*%
X71200000Y-61600000D03*
D11*
%TO.P,R2,2*%
%TO.N,+3V3*%
X71200000Y-53980000D03*
%TD*%
D10*
%TO.P,C6,1*%
%TO.N,Net-(C6-Pad1)*%
X57190000Y-121920000D03*
%TO.P,C6,2*%
%TO.N,GND*%
X62190000Y-121920000D03*
%TD*%
D12*
%TO.P,Q3,1,E*%
%TO.N,GND*%
X42880000Y-104940000D03*
D13*
%TO.P,Q3,2,B*%
%TO.N,Net-(Q3-Pad2)*%
X42880000Y-107480000D03*
%TO.P,Q3,3,C*%
%TO.N,SEL2*%
X42880000Y-110020000D03*
%TD*%
D23*
%TO.P,C2,1*%
%TO.N,+5V*%
X68072000Y-119634000D03*
D10*
%TO.P,C2,2*%
%TO.N,GND*%
X68072000Y-122134000D03*
%TD*%
%TO.P,R14,1*%
%TO.N,PADOSC2*%
X81710000Y-124300000D03*
D11*
%TO.P,R14,2*%
%TO.N,GND*%
X74090000Y-124300000D03*
%TD*%
D10*
%TO.P,R7,1*%
%TO.N,SEL1*%
X56134000Y-101854000D03*
D11*
%TO.P,R7,2*%
%TO.N,+5V*%
X56134000Y-94234000D03*
%TD*%
D23*
%TO.P,U6,1,X4*%
%TO.N,Net-(P11-Pad1)*%
X81380000Y-73800000D03*
D11*
%TO.P,U6,2,X6*%
%TO.N,Net-(P13-Pad1)*%
X81380000Y-76340000D03*
%TO.P,U6,3,X*%
%TO.N,Net-(C8-Pad1)*%
X81380000Y-78880000D03*
%TO.P,U6,4,X7*%
%TO.N,Net-(P14-Pad1)*%
X81380000Y-81420000D03*
%TO.P,U6,5,X5*%
%TO.N,Net-(P12-Pad1)*%
X81380000Y-83960000D03*
%TO.P,U6,6,INH*%
%TO.N,GND*%
X81380000Y-86500000D03*
%TO.P,U6,7,VEE*%
X81380000Y-89040000D03*
%TO.P,U6,8,VSS*%
X81380000Y-91580000D03*
%TO.P,U6,9,C*%
%TO.N,SEL2*%
X89000000Y-91580000D03*
%TO.P,U6,10,B*%
%TO.N,SEL1*%
X89000000Y-89040000D03*
%TO.P,U6,11,A*%
%TO.N,SEL0*%
X89000000Y-86500000D03*
%TO.P,U6,12,X3*%
%TO.N,Net-(P16-Pad1)*%
X89000000Y-83960000D03*
%TO.P,U6,13,X0*%
%TO.N,Net-(P9-Pad1)*%
X89000000Y-81420000D03*
%TO.P,U6,14,X1*%
%TO.N,Net-(P15-Pad1)*%
X89000000Y-78880000D03*
%TO.P,U6,15,X2*%
%TO.N,Net-(P10-Pad1)*%
X89000000Y-76340000D03*
%TO.P,U6,16,VDD*%
%TO.N,+5V*%
X89000000Y-73800000D03*
%TD*%
D10*
%TO.P,R13,1*%
%TO.N,PADOSC2*%
X81710000Y-121100000D03*
D11*
%TO.P,R13,2*%
%TO.N,Net-(R13-Pad2)*%
X74090000Y-121100000D03*
%TD*%
D10*
%TO.P,C3,1*%
%TO.N,+5V*%
X89100000Y-41000000D03*
%TO.P,C3,2*%
%TO.N,GND*%
X84100000Y-41000000D03*
%TD*%
%TO.P,R9,1*%
%TO.N,SEL2*%
X59436000Y-101854000D03*
D11*
%TO.P,R9,2*%
%TO.N,+5V*%
X59436000Y-94234000D03*
%TD*%
D10*
%TO.P,R10,1*%
%TO.N,PADOSC1*%
X65900000Y-93500000D03*
D11*
%TO.P,R10,2*%
%TO.N,Net-(R11-Pad2)*%
X73520000Y-93500000D03*
%TD*%
D10*
%TO.P,R1,1*%
%TO.N,Net-(D1-Pad1)*%
X63754000Y-114554000D03*
D11*
%TO.P,R1,2*%
%TO.N,GND*%
X56134000Y-114554000D03*
%TD*%
D23*
%TO.P,C1,1*%
%TO.N,Net-(C1-Pad1)*%
X54102000Y-124968000D03*
D10*
%TO.P,C1,2*%
%TO.N,GND*%
X54102000Y-127468000D03*
%TD*%
%TO.P,R3,1*%
%TO.N,Net-(R3-Pad1)*%
X72136000Y-47498000D03*
D11*
%TO.P,R3,2*%
%TO.N,Net-(R3-Pad2)*%
X72136000Y-39878000D03*
%TD*%
D24*
%TO.P,D1,1,K*%
%TO.N,Net-(D1-Pad1)*%
X60198000Y-109220000D03*
D25*
%TO.P,D1,2,A*%
%TO.N,+5V*%
X57658000Y-109220000D03*
%TD*%
D23*
%TO.P,C5,1*%
%TO.N,Net-(C5-Pad1)*%
X73600000Y-51050000D03*
D10*
%TO.P,C5,2*%
%TO.N,GND*%
X76100000Y-51050000D03*
%TD*%
D26*
%TO.N,+5V*%
X68900000Y-104900000D03*
X78300000Y-77500000D03*
X74900000Y-77600000D03*
%TO.N,SEL0*%
X75170000Y-88830000D03*
X79000000Y-87700000D03*
%TO.N,SEL1*%
X76170000Y-90330000D03*
X79100000Y-90300000D03*
%TO.N,SEL2*%
X77090000Y-93290000D03*
X79100000Y-93200000D03*
%TO.N,Net-(U3-Pad1)*%
X98000000Y-44000000D03*
%TO.N,Net-(U3-Pad2)*%
X122000000Y-44000000D03*
%TO.N,Net-(U3-Pad4)*%
X110000000Y-57000000D03*
%TO.N,Net-(U3-Pad5)*%
X134000000Y-57000000D03*
%TO.N,Net-(U3-Pad12)*%
X122000000Y-57000000D03*
%TO.N,Net-(U3-Pad13)*%
X98000000Y-57000000D03*
%TO.N,Net-(U3-Pad14)*%
X134000000Y-44000000D03*
%TO.N,Net-(U3-Pad15)*%
X110000000Y-44000000D03*
%TO.N,Net-(P9-Pad1)*%
X122000000Y-83000000D03*
%TO.N,Net-(P10-Pad1)*%
X110000000Y-70000000D03*
%TO.N,Net-(P11-Pad1)*%
X122000000Y-70000000D03*
%TO.N,Net-(P12-Pad1)*%
X110000000Y-83000000D03*
%TO.N,Net-(P13-Pad1)*%
X134000000Y-70000000D03*
%TO.N,Net-(P14-Pad1)*%
X134000000Y-83000000D03*
%TO.N,Net-(P15-Pad1)*%
X98000000Y-70000000D03*
%TO.N,Net-(P16-Pad1)*%
X98000000Y-83000000D03*
%TO.N,PADOSC2*%
X67300000Y-108474500D03*
X67300000Y-105700000D03*
%TD*%
D27*
%TO.N,Net-(C1-Pad1)*%
X66548000Y-126238000D02*
X65024000Y-127762000D01*
X52324000Y-117300000D02*
X52324000Y-123190000D01*
X52324000Y-123190000D02*
X54102000Y-124968000D01*
X65024000Y-127762000D02*
X58166000Y-127762000D01*
X55372000Y-124968000D02*
X54102000Y-124968000D01*
X58166000Y-127762000D02*
X55372000Y-124968000D01*
X66548000Y-125547000D02*
X66548000Y-126238000D01*
%TO.N,+5V*%
X40894000Y-93794000D02*
X40894000Y-111594000D01*
X64008000Y-118110000D02*
X62992000Y-118110000D01*
X62860000Y-97658000D02*
X59436000Y-94234000D01*
X40894000Y-111594000D02*
X42400000Y-113100000D01*
X73200000Y-87900000D02*
X73200000Y-91000000D01*
X60196000Y-37846000D02*
X60706000Y-37846000D01*
X56134000Y-94234000D02*
X52832000Y-94234000D01*
X40894000Y-93794000D02*
X40894000Y-38862000D01*
D28*
X88920000Y-41180000D02*
X89100000Y-41000000D01*
D27*
X74600000Y-86500000D02*
X73200000Y-87900000D01*
X40894000Y-38862000D02*
X41910000Y-37846000D01*
X89700000Y-70800000D02*
X89700000Y-73100000D01*
D28*
X88920000Y-45954000D02*
X88920000Y-41180000D01*
D27*
X62860000Y-99450000D02*
X64330000Y-100920000D01*
X60706000Y-37846000D02*
X63860000Y-41000000D01*
X63860000Y-41000000D02*
X64000000Y-41000000D01*
X42164000Y-96520000D02*
X40894000Y-95250000D01*
X69750000Y-94450000D02*
X69750000Y-104150000D01*
X74600000Y-77900000D02*
X74600000Y-86500000D01*
X55900000Y-113100000D02*
X57663000Y-111337000D01*
X57663000Y-112781000D02*
X57663000Y-111337000D01*
X62860000Y-99450000D02*
X62860000Y-97658000D01*
X64330000Y-100920000D02*
X64330000Y-101663000D01*
X73200000Y-91000000D02*
X69750000Y-94450000D01*
X57663000Y-109225000D02*
X57658000Y-109220000D01*
X64330000Y-101663000D02*
X66035000Y-103368000D01*
X88600000Y-69700000D02*
X89700000Y-70800000D01*
X42400000Y-113100000D02*
X55900000Y-113100000D01*
X78400000Y-77600000D02*
X83000000Y-77600000D01*
X52832000Y-94234000D02*
X50546000Y-96520000D01*
X66548000Y-118110000D02*
X68072000Y-119634000D01*
X40894000Y-95250000D02*
X40894000Y-93794000D01*
X89000000Y-73800000D02*
X86800000Y-73800000D01*
X69750000Y-104150000D02*
X69000000Y-104900000D01*
X78400000Y-77600000D02*
X78300000Y-77500000D01*
X60196000Y-37846000D02*
X85946000Y-37846000D01*
X64008000Y-118110000D02*
X66548000Y-118110000D01*
X50546000Y-96520000D02*
X42164000Y-96520000D01*
X41910000Y-37846000D02*
X60196000Y-37846000D01*
X59436000Y-94234000D02*
X56134000Y-94234000D01*
X62992000Y-118110000D02*
X57663000Y-112781000D01*
X85946000Y-37846000D02*
X89100000Y-41000000D01*
X57663000Y-111337000D02*
X57663000Y-109225000D01*
X83000000Y-77600000D02*
X86800000Y-73800000D01*
X69000000Y-104900000D02*
X68900000Y-104900000D01*
X74900000Y-77600000D02*
X74600000Y-77900000D01*
X89700000Y-73100000D02*
X89000000Y-73800000D01*
%TO.N,Net-(D1-Pad1)*%
X60203000Y-109225000D02*
X60203000Y-110495000D01*
X60198000Y-109220000D02*
X60203000Y-109225000D01*
X60203000Y-110495000D02*
X63754000Y-114046000D01*
X63754000Y-114046000D02*
X63754000Y-114554000D01*
%TO.N,Net-(C5-Pad1)*%
X62484000Y-52184000D02*
X64000000Y-53700000D01*
X71000000Y-49870000D02*
X62906000Y-49870000D01*
X73600000Y-51050000D02*
X72180000Y-51050000D01*
X62906000Y-49870000D02*
X62484000Y-50292000D01*
X62484000Y-50292000D02*
X62484000Y-52184000D01*
X72180000Y-51050000D02*
X71000000Y-49870000D01*
%TO.N,Net-(C6-Pad1)*%
X57190000Y-121920000D02*
X60817000Y-125547000D01*
X56388000Y-121118000D02*
X57190000Y-121920000D01*
X56388000Y-118110000D02*
X56388000Y-121118000D01*
X60817000Y-125547000D02*
X61468000Y-125547000D01*
%TO.N,Net-(C9-Pad1)*%
X72500000Y-90400000D02*
X72500000Y-87300000D01*
X67200000Y-96900000D02*
X67200000Y-100200000D01*
X76800000Y-61300000D02*
X76800000Y-53800000D01*
X68500000Y-101500000D02*
X67200000Y-100200000D01*
X76800000Y-53800000D02*
X79566000Y-51034000D01*
X72500000Y-87300000D02*
X73500000Y-86300000D01*
X68575000Y-103368000D02*
X68500000Y-103293000D01*
X73500000Y-86300000D02*
X73500000Y-64600000D01*
X68500000Y-103293000D02*
X68500000Y-101500000D01*
X73500000Y-64600000D02*
X76800000Y-61300000D01*
X67200000Y-96900000D02*
X67200000Y-95700000D01*
X67200000Y-95700000D02*
X72500000Y-90400000D01*
X79566000Y-51034000D02*
X81300000Y-51034000D01*
%TO.N,Net-(R2-Pad1)*%
X71200000Y-63000000D02*
X71200000Y-61600000D01*
X67800000Y-66400000D02*
X71200000Y-63000000D01*
X64000000Y-66400000D02*
X67800000Y-66400000D01*
%TO.N,Net-(R3-Pad1)*%
X65122000Y-47498000D02*
X72136000Y-47498000D01*
X64000000Y-48620000D02*
X65122000Y-47498000D01*
%TO.N,Net-(R3-Pad2)*%
X66696000Y-43540000D02*
X70358000Y-39878000D01*
X64000000Y-43540000D02*
X66696000Y-43540000D01*
X70358000Y-39878000D02*
X72136000Y-39878000D01*
%TO.N,Net-(R4-Pad1)*%
X52290000Y-86030000D02*
X50270000Y-88050000D01*
X50270000Y-93420000D02*
X49450000Y-94240000D01*
X60770000Y-86030000D02*
X52290000Y-86030000D01*
X50270000Y-88050000D02*
X50270000Y-93420000D01*
X64000000Y-89260000D02*
X60770000Y-86030000D01*
%TO.N,Net-(R6-Pad1)*%
X49080000Y-87220000D02*
X49080000Y-90810000D01*
X49150000Y-90880000D02*
X49150000Y-91270000D01*
X64000000Y-86720000D02*
X61740000Y-84460000D01*
X49150000Y-91270000D02*
X46200000Y-94220000D01*
X51840000Y-84460000D02*
X49080000Y-87220000D01*
X61740000Y-84460000D02*
X51840000Y-84460000D01*
X49080000Y-90810000D02*
X49150000Y-90880000D01*
%TO.N,Net-(R8-Pad1)*%
X45240000Y-91060000D02*
X42900000Y-93400000D01*
X47150000Y-91060000D02*
X45240000Y-91060000D01*
X48230000Y-86770000D02*
X48230000Y-89980000D01*
X48230000Y-89980000D02*
X47150000Y-91060000D01*
X42900000Y-93400000D02*
X42900000Y-94260000D01*
X64000000Y-81640000D02*
X53360000Y-81640000D01*
X53360000Y-81640000D02*
X48230000Y-86770000D01*
%TO.N,PADOSC1*%
X68650000Y-90750000D02*
X65900000Y-93500000D01*
X71350000Y-68090000D02*
X68610000Y-68090000D01*
X64210000Y-69150000D02*
X64000000Y-68940000D01*
X68610000Y-68090000D02*
X67550000Y-69150000D01*
X63160000Y-76560000D02*
X61900000Y-75300000D01*
X65160000Y-76560000D02*
X68650000Y-80050000D01*
X64000000Y-76560000D02*
X65160000Y-76560000D01*
X64000000Y-76560000D02*
X63160000Y-76560000D01*
X61900000Y-75300000D02*
X61900000Y-70800000D01*
X67550000Y-69150000D02*
X64210000Y-69150000D01*
X61900000Y-70800000D02*
X63760000Y-68940000D01*
X68650000Y-80050000D02*
X68650000Y-90750000D01*
X63760000Y-68940000D02*
X64000000Y-68940000D01*
%TO.N,Net-(R11-Pad2)*%
X71115000Y-102085000D02*
X73000000Y-100200000D01*
X75100000Y-99920000D02*
X74820000Y-100200000D01*
X73520000Y-93500000D02*
X73520000Y-94320000D01*
X71115000Y-103368000D02*
X71115000Y-102085000D01*
X73520000Y-94320000D02*
X75100000Y-95900000D01*
X75100000Y-95900000D02*
X75100000Y-99920000D01*
X73000000Y-100200000D02*
X74820000Y-100200000D01*
%TO.N,Net-(Q1-Pad2)*%
X49450000Y-101860000D02*
X49450000Y-104166000D01*
X49450000Y-104166000D02*
X52726000Y-107442000D01*
%TO.N,SEL0*%
X54102000Y-108606000D02*
X52726000Y-109982000D01*
X84300000Y-59970000D02*
X85616000Y-58654000D01*
X75750000Y-88250000D02*
X75750000Y-63690000D01*
X82900000Y-105100000D02*
X81500000Y-106500000D01*
X60200000Y-99100000D02*
X55586000Y-99100000D01*
X52832000Y-101854000D02*
X54102000Y-103124000D01*
X75170000Y-94570000D02*
X82900000Y-102300000D01*
X82900000Y-102300000D02*
X82900000Y-105100000D01*
X84400000Y-87700000D02*
X85600000Y-86500000D01*
X64300000Y-103200000D02*
X60200000Y-99100000D01*
X79470000Y-59970000D02*
X84300000Y-59970000D01*
X81500000Y-106500000D02*
X65800000Y-106500000D01*
X54102000Y-103124000D02*
X54102000Y-108606000D01*
X55586000Y-99100000D02*
X52832000Y-101854000D01*
X64300000Y-105000000D02*
X64300000Y-103200000D01*
X75750000Y-63690000D02*
X79470000Y-59970000D01*
X85616000Y-58654000D02*
X88920000Y-58654000D01*
X75170000Y-88830000D02*
X75750000Y-88250000D01*
X79000000Y-87700000D02*
X84400000Y-87700000D01*
X85600000Y-86500000D02*
X89000000Y-86500000D01*
X65800000Y-106500000D02*
X64300000Y-105000000D01*
X75170000Y-88830000D02*
X75170000Y-94570000D01*
%TO.N,Net-(Q2-Pad2)*%
X46200000Y-101840000D02*
X44960000Y-103080000D01*
X44960000Y-104590000D02*
X47810000Y-107440000D01*
X44960000Y-103080000D02*
X44960000Y-104590000D01*
%TO.N,SEL1*%
X83700000Y-105700000D02*
X83700000Y-101900000D01*
X83590000Y-62480000D02*
X84876000Y-61194000D01*
X79100000Y-90300000D02*
X84900000Y-90300000D01*
X61300000Y-101500000D02*
X61300000Y-105800000D01*
X54864000Y-110744000D02*
X54356000Y-111252000D01*
X60100000Y-100300000D02*
X61300000Y-101500000D01*
X56134000Y-101854000D02*
X57688000Y-100300000D01*
X56134000Y-101854000D02*
X54864000Y-103124000D01*
X76500000Y-65530000D02*
X79550000Y-62480000D01*
X54356000Y-111252000D02*
X49082000Y-111252000D01*
X84900000Y-90300000D02*
X86160000Y-89040000D01*
X49082000Y-111252000D02*
X47810000Y-109980000D01*
X57688000Y-100300000D02*
X60100000Y-100300000D01*
X82300000Y-107100000D02*
X83700000Y-105700000D01*
X61300000Y-105800000D02*
X62600000Y-107100000D01*
X76170000Y-90330000D02*
X76500000Y-90000000D01*
X79550000Y-62480000D02*
X83590000Y-62480000D01*
X76170000Y-94370000D02*
X76170000Y-90330000D01*
X76500000Y-90000000D02*
X76500000Y-65530000D01*
X86160000Y-89040000D02*
X89000000Y-89040000D01*
X83700000Y-101900000D02*
X76170000Y-94370000D01*
X84876000Y-61194000D02*
X88920000Y-61194000D01*
X62600000Y-107100000D02*
X82300000Y-107100000D01*
X54864000Y-103124000D02*
X54864000Y-110744000D01*
%TO.N,Net-(Q3-Pad2)*%
X41500000Y-102380000D02*
X41500000Y-106100000D01*
X41500000Y-106100000D02*
X42880000Y-107480000D01*
X42900000Y-101880000D02*
X42000000Y-101880000D01*
X42000000Y-101880000D02*
X41500000Y-102380000D01*
%TO.N,SEL2*%
X77300000Y-68430000D02*
X80318000Y-65412000D01*
X55626000Y-104394000D02*
X55626000Y-111506000D01*
X59436000Y-101854000D02*
X59436000Y-105236000D01*
X85020000Y-91580000D02*
X83300000Y-93300000D01*
X77090000Y-93290000D02*
X77300000Y-93080000D01*
X55118000Y-112014000D02*
X46228000Y-112014000D01*
X83300000Y-93300000D02*
X79200000Y-93300000D01*
X77090000Y-94190000D02*
X77090000Y-93290000D01*
X46228000Y-112014000D02*
X44234000Y-110020000D01*
X58166000Y-101854000D02*
X55626000Y-104394000D01*
X61900000Y-107700000D02*
X82900000Y-107700000D01*
X87242000Y-65412000D02*
X88920000Y-63734000D01*
X79200000Y-93300000D02*
X79100000Y-93200000D01*
X59436000Y-101854000D02*
X58166000Y-101854000D01*
X84300000Y-101400000D02*
X77090000Y-94190000D01*
X80318000Y-65412000D02*
X87242000Y-65412000D01*
X85020000Y-91580000D02*
X89000000Y-91580000D01*
X55626000Y-111506000D02*
X55118000Y-112014000D01*
X84300000Y-106300000D02*
X84300000Y-101400000D01*
X82900000Y-107700000D02*
X84300000Y-106300000D01*
X59436000Y-105236000D02*
X61900000Y-107700000D01*
X77300000Y-93080000D02*
X77300000Y-68430000D01*
X44234000Y-110020000D02*
X42880000Y-110020000D01*
%TO.N,Net-(U3-Pad1)*%
X82954000Y-45954000D02*
X84250000Y-47250000D01*
X81300000Y-45954000D02*
X82954000Y-45954000D01*
X94750000Y-47250000D02*
X98000000Y-44000000D01*
X84250000Y-47250000D02*
X94750000Y-47250000D01*
%TO.N,+3V3*%
X71200000Y-51740000D02*
X71200000Y-53980000D01*
X64000000Y-51160000D02*
X70620000Y-51160000D01*
X70620000Y-51160000D02*
X71200000Y-51740000D01*
%TO.N,Net-(U3-Pad2)*%
X90250000Y-49750000D02*
X85250000Y-49750000D01*
X90640000Y-49360000D02*
X90250000Y-49750000D01*
X121000000Y-44000000D02*
X115640000Y-49360000D01*
X122000000Y-44000000D02*
X121000000Y-44000000D01*
X85250000Y-49750000D02*
X83994000Y-48494000D01*
X83994000Y-48494000D02*
X81300000Y-48494000D01*
X115640000Y-49360000D02*
X90640000Y-49360000D01*
%TO.N,Net-(U3-Pad4)*%
X103730000Y-50730000D02*
X110000000Y-57000000D01*
X84970000Y-52320000D02*
X90700000Y-52320000D01*
X92290000Y-50730000D02*
X103730000Y-50730000D01*
X90700000Y-52320000D02*
X92290000Y-50730000D01*
X83716000Y-53574000D02*
X84970000Y-52320000D01*
X81300000Y-53574000D02*
X83716000Y-53574000D01*
%TO.N,Net-(U3-Pad5)*%
X95340000Y-62590000D02*
X90039000Y-57289000D01*
X84864000Y-56114000D02*
X81300000Y-56114000D01*
X90039000Y-57289000D02*
X86039000Y-57289000D01*
X126910000Y-62590000D02*
X95340000Y-62590000D01*
X86039000Y-57289000D02*
X84864000Y-56114000D01*
X134000000Y-57000000D02*
X132500000Y-57000000D01*
X132500000Y-57000000D02*
X126910000Y-62590000D01*
%TO.N,Net-(U3-Pad12)*%
X90134000Y-56114000D02*
X88920000Y-56114000D01*
X120500000Y-57000000D02*
X115540000Y-61960000D01*
X115540000Y-61960000D02*
X95980000Y-61960000D01*
X122000000Y-57000000D02*
X120500000Y-57000000D01*
X95980000Y-61960000D02*
X90134000Y-56114000D01*
%TO.N,Net-(U3-Pad13)*%
X94574000Y-53574000D02*
X98000000Y-57000000D01*
X88920000Y-53574000D02*
X94574000Y-53574000D01*
%TO.N,Net-(U3-Pad14)*%
X91750000Y-50000000D02*
X90716000Y-51034000D01*
X90716000Y-51034000D02*
X88920000Y-51034000D01*
X127000000Y-50000000D02*
X91750000Y-50000000D01*
X133000000Y-44000000D02*
X127000000Y-50000000D01*
X134000000Y-44000000D02*
X133000000Y-44000000D01*
%TO.N,Net-(U3-Pad15)*%
X103260000Y-48740000D02*
X89627000Y-48740000D01*
X110000000Y-44000000D02*
X108000000Y-44000000D01*
X89627000Y-48740000D02*
X89381000Y-48494000D01*
X89381000Y-48494000D02*
X88920000Y-48494000D01*
X108000000Y-44000000D02*
X103260000Y-48740000D01*
%TO.N,Net-(C8-Pad1)*%
X76195000Y-112505000D02*
X74200000Y-114500000D01*
X77000000Y-109500000D02*
X77900000Y-108600000D01*
X78000000Y-80600000D02*
X79720000Y-78880000D01*
X85200000Y-100800000D02*
X78000000Y-93600000D01*
X78000000Y-93600000D02*
X78000000Y-80600000D01*
X76195000Y-110988000D02*
X77000000Y-110183000D01*
X77000000Y-110183000D02*
X77000000Y-109500000D01*
X77900000Y-108600000D02*
X83400000Y-108600000D01*
X76195000Y-110988000D02*
X76195000Y-112505000D01*
X79720000Y-78880000D02*
X81380000Y-78880000D01*
X85200000Y-106800000D02*
X85200000Y-100800000D01*
X83400000Y-108600000D02*
X85200000Y-106800000D01*
X74200000Y-114500000D02*
X74200000Y-117800000D01*
%TO.N,Net-(P9-Pad1)*%
X89000000Y-81420000D02*
X89780000Y-81420000D01*
X93950000Y-76000000D02*
X115000000Y-76000000D01*
X91290000Y-78660000D02*
X93950000Y-76000000D01*
X89780000Y-81420000D02*
X91290000Y-79910000D01*
X91290000Y-79910000D02*
X91290000Y-78660000D01*
X115000000Y-76000000D02*
X122000000Y-83000000D01*
%TO.N,Net-(P10-Pad1)*%
X89000000Y-76340000D02*
X90910000Y-76340000D01*
X103280000Y-74720000D02*
X108000000Y-70000000D01*
X92530000Y-74720000D02*
X103280000Y-74720000D01*
X90910000Y-76340000D02*
X92530000Y-74720000D01*
X108000000Y-70000000D02*
X110000000Y-70000000D01*
%TO.N,Net-(P11-Pad1)*%
X83100000Y-67350000D02*
X81380000Y-69070000D01*
X95700000Y-64000000D02*
X92350000Y-67350000D01*
X122000000Y-70000000D02*
X122000000Y-68000000D01*
X92350000Y-67350000D02*
X83100000Y-67350000D01*
X81380000Y-69070000D02*
X81380000Y-73800000D01*
X122000000Y-68000000D02*
X118000000Y-64000000D01*
X118000000Y-64000000D02*
X95700000Y-64000000D01*
%TO.N,Net-(P12-Pad1)*%
X88000000Y-82700000D02*
X89700000Y-82700000D01*
X81380000Y-83960000D02*
X86740000Y-83960000D01*
X91900000Y-79100000D02*
X94280000Y-76720000D01*
X106720000Y-76720000D02*
X110000000Y-80000000D01*
X89700000Y-82700000D02*
X91900000Y-80500000D01*
X86740000Y-83960000D02*
X88000000Y-82700000D01*
X91900000Y-80500000D02*
X91900000Y-79100000D01*
X110000000Y-80000000D02*
X110000000Y-83000000D01*
X94280000Y-76720000D02*
X106720000Y-76720000D01*
%TO.N,Net-(P13-Pad1)*%
X79200000Y-75400000D02*
X80140000Y-76340000D01*
X90950000Y-66500000D02*
X81400000Y-66500000D01*
X80140000Y-76340000D02*
X81380000Y-76340000D01*
X134000000Y-70000000D02*
X134000000Y-68000000D01*
X81400000Y-66500000D02*
X79200000Y-68700000D01*
X129220000Y-63220000D02*
X94230000Y-63220000D01*
X94230000Y-63220000D02*
X90950000Y-66500000D01*
X134000000Y-68000000D02*
X129220000Y-63220000D01*
X79200000Y-68700000D02*
X79200000Y-75400000D01*
%TO.N,Net-(P14-Pad1)*%
X134000000Y-81000000D02*
X128360000Y-75360000D01*
X86900000Y-80100000D02*
X85580000Y-81420000D01*
X134000000Y-83000000D02*
X134000000Y-81000000D01*
X90700000Y-79500000D02*
X90100000Y-80100000D01*
X90700000Y-78300000D02*
X90700000Y-79500000D01*
X90100000Y-80100000D02*
X86900000Y-80100000D01*
X85580000Y-81420000D02*
X81380000Y-81420000D01*
X128360000Y-75360000D02*
X93640000Y-75360000D01*
X93640000Y-75360000D02*
X90700000Y-78300000D01*
%TO.N,Net-(P15-Pad1)*%
X95830000Y-70000000D02*
X98000000Y-70000000D01*
X88120000Y-75010000D02*
X90820000Y-75010000D01*
X89000000Y-78880000D02*
X87890000Y-78880000D01*
X87890000Y-78880000D02*
X87290000Y-78280000D01*
X87290000Y-78280000D02*
X87290000Y-75840000D01*
X87290000Y-75840000D02*
X88120000Y-75010000D01*
X90820000Y-75010000D02*
X95830000Y-70000000D01*
%TO.N,Net-(P16-Pad1)*%
X95000000Y-83000000D02*
X94040000Y-83960000D01*
X98000000Y-83000000D02*
X95000000Y-83000000D01*
X94040000Y-83960000D02*
X89000000Y-83960000D01*
%TO.N,Net-(R13-Pad2)*%
X76000000Y-119300000D02*
X75500000Y-119800000D01*
X81820000Y-114073000D02*
X81820000Y-114500000D01*
X77800000Y-114500000D02*
X76000000Y-116300000D01*
X75390000Y-119800000D02*
X74090000Y-121100000D01*
X76000000Y-116300000D02*
X76000000Y-119300000D01*
X78735000Y-110988000D02*
X81820000Y-114073000D01*
X75500000Y-119800000D02*
X75390000Y-119800000D01*
X81820000Y-114500000D02*
X77800000Y-114500000D01*
%TO.N,PADOSC2*%
X67300000Y-108474500D02*
X67300000Y-112200000D01*
X65720000Y-74020000D02*
X64000000Y-74020000D01*
X67300000Y-102200000D02*
X64880000Y-99780000D01*
X64880000Y-99780000D02*
X64880000Y-96870000D01*
X64880000Y-96870000D02*
X69550000Y-92200000D01*
X69550000Y-77850000D02*
X65720000Y-74020000D01*
X71200000Y-114100000D02*
X71200000Y-120900000D01*
X72900000Y-122600000D02*
X78000000Y-122600000D01*
X67300000Y-105700000D02*
X67300000Y-102200000D01*
X69550000Y-92200000D02*
X69550000Y-77850000D01*
X71200000Y-120900000D02*
X72900000Y-122600000D01*
X70500000Y-113400000D02*
X71200000Y-114100000D01*
X67300000Y-112200000D02*
X68500000Y-113400000D01*
X78000000Y-122600000D02*
X79500000Y-121100000D01*
X79500000Y-121100000D02*
X81710000Y-121100000D01*
X68500000Y-113400000D02*
X70500000Y-113400000D01*
X81710000Y-121100000D02*
X81710000Y-124300000D01*
%TD*%
M02*
